# xmcd
#
# Track frame offsets:
#	150
#	16049
#	35080
#	46745
#	62283
#	83317
#	99406
#	114653
#	130765
#	144558
#	168190
#	186064
#	203690
#	229097
#
# Disc length: 3189 seconds
#
# Revision: 0
# Processed by: cddbd v1.5.2PL0 Copyright (c) Steve Scherf et al.
# Submitted via: VUPlayer 2.49
#
DISCID=a20c730e
DTITLE=Paulie Bignell - Red Eye Flight
DYEAR=2011
DGENRE=Blues
TTITLE0=Red Eye Flight
TTITLE1=Sleeping With My Baby Tonight
TTITLE2=Stoned Cold and Drunk
TTITLE3=Truck Drivin' Man
TTITLE4=Looking For Somebody
TTITLE5=Her And Me
TTITLE6=Come On And Dance
TTITLE7=Waiting In Your Welfare Line
TTITLE8=Tiger By The Tail
TTITLE9=I'm A King Bee
TTITLE10=Not If But When
TTITLE11=Send Me Some Lovin'
TTITLE12=Chance Of Love
TTITLE13=Busted
EXTD=
EXTT0=
EXTT1=
EXTT2=
EXTT3=
EXTT4=
EXTT5=
EXTT6=
EXTT7=
EXTT8=
EXTT9=
EXTT10=
EXTT11=
EXTT12=
EXTT13=
PLAYORDER=
